<svg xmlns="http://www.w3.org/2000/svg" width="29" height="29" viewBox="0 0 29 29"><defs><style>.a{fill:none;}.b{fill:green;fill-rule:evenodd;}</style></defs><g transform="translate(-520 -338)"><rect class="a" width="29" height="29" transform="translate(520 338)"/><path class="b" d="M196.955,495.259v13.054a.346.346,0,0,0,.352.34h5.024a.346.346,0,0,0,.352-.34V495.046h3.643a.348.348,0,0,0,.351-.311l.35-4a.345.345,0,0,0-.351-.369h-3.992v-2.836a1.226,1.226,0,0,1,1.247-1.2h2.807a.346.346,0,0,0,.352-.34v-4a.346.346,0,0,0-.352-.34H202a4.954,4.954,0,0,0-5.04,4.863v3.854h-2.512a.346.346,0,0,0-.352.34v4a.347.347,0,0,0,.352.34h2.512Z" transform="translate(333.909 -142.652)"/></g></svg>