<svg xmlns="http://www.w3.org/2000/svg" width="29" height="29" viewBox="0 0 29 29"><defs><style>.a{fill:none;}.b{fill:green;}</style></defs><g transform="translate(-602 -338)"><rect class="a" width="29" height="29" transform="translate(602 338)"/><path class="b" d="M335,395.909A5.893,5.893,0,0,0,329.122,390H313.878A5.893,5.893,0,0,0,308,395.909v7.182A5.893,5.893,0,0,0,313.878,409h15.244A5.893,5.893,0,0,0,335,403.091Zm-9.618,3.953-6.079,3.352c-.265.143-.5-.049-.5-.351v-6.881c0-.306.245-.5.51-.347l6.121,3.529A.4.4,0,0,1,325.382,399.862Z" transform="translate(295 -43)"/></g></svg>